<svg fill="none" height="46" viewBox="0 0 39 46" width="39" xmlns="http://www.w3.org/2000/svg"><path d="m19.19 45.75-13.19-15.55c-.19-.23-.37-.46-.55-.7-2.24754-2.9664-3.45955-6.5883-3.45-10.31-.05529-2.2917.34833-4.5712 1.18711-6.7046.83878-2.1333 2.09577-4.07734 3.69702-5.71768 1.60124-1.64034 3.51437-2.94385 5.62687-3.83384 2.1125-.88998 4.3817-1.34846 6.674-1.34846s4.5615.45848 6.674 1.34846c2.1125.88999 4.0256 2.1935 5.6269 3.83384 1.6012 1.64034 2.8582 3.58438 3.697 5.71768.8388 2.1334 1.2424 4.4129 1.1871 6.7046.0067 3.7228-1.2089 7.3449-3.46 10.31 0 0-.47.62-.54.7zm-11.19-18.13.44.58 10.75 12.72 10.81-12.74c.07-.08.44-.57.44-.57 1.8382-2.4219 2.8323-5.3795 2.83-8.42 0-1.8464-.3637-3.6747-1.0703-5.3805-.7065-1.7059-1.7422-3.2558-3.0478-4.56142-1.3056-1.3056-2.8555-2.34125-4.5614-3.04783-1.7058-.70658-3.5341-1.07025-5.3805-1.07025s-3.6747.36367-5.3805 1.07025c-1.7059.70658-3.2558 1.74223-4.56143 3.04783-1.30559 1.30562-2.34124 2.85552-3.04782 4.56142-.70658 1.7058-1.07025 3.5341-1.07025 5.3805.00055 3.0464 1.00188 6.0082 2.85 8.43z" fill="#3e52bc"/><path d="m8.00002 27.62.44.58 10.74998 12.72 10.81-12.74c.07-.08.44-.57.44-.57 1.8383-2.4219 2.8323-5.3795 2.83-8.42 0-1.8464-.3636-3.6747-1.0702-5.3805-.7066-1.7059-1.7423-3.2558-3.0479-4.56142-1.3055-1.30559-2.8555-2.34124-4.5613-3.04782-1.7059-.70658-3.5342-1.07026-5.3806-1.07026s-3.6747.36368-5.3805 1.07026-3.2558 1.74223-4.5614 3.04782c-1.30559 1.30562-2.34124 2.85552-3.04782 4.56142-.70658 1.7058-1.07026 3.5341-1.07026 5.3805.00056 3.0464 1.00189 6.0082 2.85 8.43z" fill="#3e52bc"/><path d="m19.19 33.11c7.5 0 13.58-6.08 13.58-13.58s-6.08-13.57999-13.58-13.57999-13.58001 6.07999-13.58001 13.57999 6.08001 13.58 13.58001 13.58z" fill="#fdfdff"/><path d="m27.375 24.875h-15.75v-7.3333l7.875-7.7917 7.875 7.7917z" fill="#e8eaf6"/><path d="m26.0625 16.625-2.1875-2.2917v-3.2083h2.1875z" fill="#c5cae9"/><path d="m11.625 24.875h15.75v2.2917h-15.75z" fill="#c5cae9"/><path d="m19.5 8.97083-8.75 8.52497.875 1.0084 7.875-7.6542 7.875 7.6542.875-1.0084z" fill="#3e52bc"/><path d="m16.875 19.8333h5.25v7.3334h-5.25z" fill="#3e52bc"/><g fill="#ffc41f"><path d="m18.1875 14.7917h2.625v2.75h-2.625z"/><path d="m21.0312 23.2708c-.1312 0-.2187.0917-.2187.2292v.9167c0 .1375.0875.2291.2187.2291.1313 0 .2188-.0916.2188-.2291v-.9167c0-.1375-.0875-.2292-.2188-.2292z"/></g></svg>