<svg width="150" height="150" viewBox="0 0 150 150" fill="none" xmlns="http://www.w3.org/2000/svg">
<g clip-path="url(#clip0_3_186)">
<path d="M131.648 104.869H80.1142C75.3458 104.869 71.4662 100.989 71.4662 96.2208C71.4662 91.4524 75.3458 87.5728 80.1142 87.5728H122.537C124.452 92.9725 129.609 96.8511 135.657 96.8511C143.331 96.8511 149.574 90.6077 149.574 82.9336C149.574 76.8857 145.695 71.7291 140.296 69.814V0H92.9886V40.5946H131.017V69.814C127.07 71.2141 123.937 74.3468 122.537 78.2944H80.1142C70.2297 78.2944 62.1878 86.336 62.1878 96.2208C62.1878 106.106 70.2297 114.147 80.1142 114.147H131.648C136.416 114.147 140.296 118.026 140.296 122.795C140.296 127.564 136.416 131.443 131.648 131.443H45.1843C43.2693 126.044 38.1127 122.165 32.0647 122.165C24.3906 122.165 18.1469 128.408 18.1469 136.082C18.1469 143.757 24.3906 150 32.0647 150C38.1127 150 43.2693 146.121 45.1843 140.722H131.648C141.532 140.722 149.574 132.68 149.574 122.795C149.574 112.91 141.532 104.869 131.648 104.869ZM102.267 31.3163V9.27835H131.017V31.3163H102.267ZM135.657 78.2944C138.215 78.2944 140.296 80.3756 140.296 82.9336C140.296 85.4916 138.215 87.5728 135.657 87.5728C133.099 87.5728 131.017 85.4916 131.017 82.9336C131.017 80.3756 133.099 78.2944 135.657 78.2944ZM32.0647 140.722C29.5067 140.722 27.4253 138.641 27.4253 136.082C27.4253 133.524 29.5064 131.443 32.0647 131.443C34.6231 131.443 36.7039 133.524 36.7039 136.082C36.7039 138.641 34.6228 140.722 32.0647 140.722Z" fill="white"/>
<path d="M42.8895 58.6076C42.8895 52.6389 38.0336 47.7829 32.0645 47.7829C26.0957 47.7829 21.2397 52.6389 21.2397 58.6076C21.2397 64.5764 26.0957 69.4324 32.0645 69.4324C38.0336 69.4324 42.8895 64.5764 42.8895 58.6076Z" fill="white"/>
<path d="M56.889 78.2041C61.3469 72.5672 63.703 65.7906 63.703 58.6073C63.703 41.1619 49.5099 26.9688 32.0642 26.9688C14.619 26.9691 0.425903 41.1619 0.425903 58.6076C0.425903 65.7912 2.7823 72.5675 7.24827 78.2146L32.0645 109.416L56.889 78.2041ZM9.70425 58.6076C9.70425 46.2782 19.7351 36.2474 32.0645 36.2474C44.3938 36.2474 54.425 46.2782 54.425 58.6076C54.425 63.6807 52.7604 68.4671 49.6197 72.4389L32.0645 94.5102L14.5176 72.4488C11.3688 68.4671 9.70425 63.6807 9.70425 58.6076Z" fill="white"/>
</g>
<defs>
<clipPath id="clip0_3_186">
<rect width="150" height="150" fill="white"/>
</clipPath>
</defs>
</svg>
